<svg id="Capa_1" enable-background="new 0 0 502 502" height="512" viewBox="0 0 502 502" width="512" xmlns="http://www.w3.org/2000/svg" xmlns:xlink="http://www.w3.org/1999/xlink"><linearGradient id="SVGID_1_" gradientUnits="userSpaceOnUse" x1="251" x2="251" y1="485.459" y2="-54.834"><stop offset="0" stop-color="#f4d952"/><stop offset="1" stop-color="#f9edaf"/></linearGradient><linearGradient id="SVGID_2_" gradientUnits="userSpaceOnUse" x1="251" x2="251" y1="436.858" y2="48.052"><stop offset="0" stop-color="#4bb370"/><stop offset=".199" stop-color="#4eb575"/><stop offset=".4501" stop-color="#56bc85"/><stop offset=".7278" stop-color="#64c89f"/><stop offset="1" stop-color="#76d6bf"/></linearGradient><linearGradient id="lg1"><stop offset="0" stop-color="#d4dbdb"/><stop offset="1" stop-color="#f3f3f3"/></linearGradient><linearGradient id="SVGID_3_" gradientTransform="matrix(-1 0 0 1 502 0)" gradientUnits="userSpaceOnUse" x1="251" x2="251" xlink:href="#lg1" y1="349.735" y2="424.659"/><linearGradient id="SVGID_4_" gradientUnits="userSpaceOnUse" x1="79.177" x2="238.078" xlink:href="#lg1" y1="236.833" y2="236.833"/><g><path d="m120.036 502c-66.188 0-120.036-53.847-120.036-120.035v-261.929c0-66.188 53.848-120.036 120.036-120.036h261.928c66.188 0 120.036 53.848 120.036 120.036v261.929c0 66.188-53.848 120.035-120.036 120.035z" fill="url(#SVGID_1_)"/><path d="m63.191 328.955c0-8.837-7.163-16-16-16-8.836 0-16 7.163-16 16v53.01c0 49.068 39.777 88.845 88.845 88.845h111.774c8.837 0 16-7.164 16-16 0-8.837-7.163-16-16-16z" fill="#efc534"/><path d="m381.964 63.191h-261.928c-31.394 0-56.845 25.45-56.845 56.845v261.929c0 31.394 25.45 56.845 56.845 56.845h11.307l116.468-20.589 122.847 20.589h11.307c31.395 0 56.845-25.45 56.845-56.845v-261.929c-.001-31.395-25.451-56.845-56.846-56.845z" fill="url(#SVGID_2_)"/><path d="m370.657 438.809c0-60.1-17.33-87.62-30.388-117.894h-178.538c-13.058 30.274-30.388 57.794-30.388 117.894z" fill="url(#SVGID_3_)"/><path d="m246.413 127.588c-13.29-9.981-41.99-19.599-73.003-20.545-11.212-.342-17.972 12.269-11.526 21.449 3.728 5.31 7.083 10.982 9.902 16.439 1.47 2.846.472 6.371-2.29 7.993-36.833 21.627-60.925 58.299-60.925 102.996 0 72.72 63.768 110.709 142.43 110.709s142.429-37.989 142.429-110.709c0-70.403-59.769-120.899-134.958-124.045-4.36-.183-8.57-1.667-12.059-4.287z" fill="url(#SVGID_4_)"/><g fill="#fffde3"><path d="m471.197 118.084c-4.936 0-9.229-3.653-9.899-8.68-2.447-18.361-11.348-35.456-25.063-48.133-4.056-3.749-4.304-10.076-.556-14.132 3.749-4.055 10.075-4.304 14.132-.556 17.13 15.835 28.25 37.207 31.311 60.178.729 5.475-3.117 10.504-8.591 11.233-.448.061-.893.09-1.334.09z"/><path d="m407.829 43.794c-.952 0-1.921-.138-2.88-.426-4.855-1.458-9.876-2.455-14.922-2.964-5.495-.554-9.5-5.457-8.946-10.952.553-5.493 5.438-9.504 10.952-8.946 6.313.636 12.594 1.884 18.668 3.708 5.29 1.588 8.29 7.164 6.701 12.453-1.299 4.331-5.273 7.127-9.573 7.127z"/></g><g><ellipse cx="163.114" cy="272.926" fill="#eaadcd" rx="14.936" ry="12.003"/><ellipse cx="338.886" cy="272.926" fill="#eaadcd" rx="14.936" ry="12.003"/><ellipse cx="188.721" cy="243.308" fill="#fff" rx="29.618" ry="29.618" transform="matrix(.386 -.922 .922 .386 -108.591 323.434)"/><ellipse cx="313.279" cy="243.308" fill="#fff" rx="29.618" ry="29.618" transform="matrix(.309 -.951 .951 .309 -14.939 466.055)"/><g fill="#3b3b44"><g><ellipse cx="188.721" cy="243.308" rx="17.652" ry="17.652" transform="matrix(.161 -.987 .987 .161 -81.741 390.498)"/><ellipse cx="313.279" cy="243.308" rx="17.652" ry="17.652" transform="matrix(.189 -.982 .982 .189 15.117 504.923)"/></g><path d="m251 273.868c-5.248 0-10.495-1.984-14.776-5.954-2.025-1.877-2.145-5.041-.267-7.065 1.878-2.025 5.041-2.145 7.066-.267 4.697 4.353 11.256 4.353 15.954 0 2.023-1.877 5.188-1.758 7.065.267 1.878 2.024 1.759 5.189-.267 7.065-4.28 3.97-9.528 5.954-14.775 5.954z"/></g></g></g></svg>